<mxfile host="app.diagrams.net" modified="2021-12-16T14:21:12.379Z" agent="5.0 (Macintosh; Intel Mac OS X 10_15_6) AppleWebKit/605.1.15 (KHTML, like Gecko) Version/15.0 Safari/605.1.15" etag="ZZsNjf-26n7IW5oMKLGk" version="15.9.6" type="github">
  <diagram id="Mjc0psuofwokBclWJV25" name="Page-1">
    <mxGraphModel dx="1044" dy="878" grid="1" gridSize="10" guides="1" tooltips="1" connect="1" arrows="1" fold="1" page="0" pageScale="1" pageWidth="850" pageHeight="1100" background="#ffffff" math="0" shadow="0">
      <root>
        <mxCell id="0" />
        <mxCell id="1" parent="0" />
        <mxCell id="Q3d7SYvH9cN6FebdILkr-6" value="Distributed File System" style="rounded=0;whiteSpace=wrap;html=1;sketch=1;hachureGap=4;fontFamily=Architects Daughter;fontSource=https%3A%2F%2Ffonts.googleapis.com%2Fcss%3Ffamily%3DArchitects%2BDaughter;fontSize=20;" vertex="1" parent="1">
          <mxGeometry x="-30" y="160" width="120" height="70" as="geometry" />
        </mxCell>
        <mxCell id="Q3d7SYvH9cN6FebdILkr-11" value="" style="edgeStyle=none;curved=1;rounded=0;sketch=1;hachureGap=4;orthogonalLoop=1;jettySize=auto;html=1;fontFamily=Architects Daughter;fontSource=https%3A%2F%2Ffonts.googleapis.com%2Fcss%3Ffamily%3DArchitects%2BDaughter;fontSize=16;endArrow=open;startSize=14;endSize=14;sourcePerimeterSpacing=8;targetPerimeterSpacing=8;" edge="1" parent="1" source="Q3d7SYvH9cN6FebdILkr-9" target="Q3d7SYvH9cN6FebdILkr-10">
          <mxGeometry relative="1" as="geometry" />
        </mxCell>
        <mxCell id="Q3d7SYvH9cN6FebdILkr-9" value="本地存储" style="rounded=0;whiteSpace=wrap;html=1;sketch=1;hachureGap=4;fontFamily=Architects Daughter;fontSource=https%3A%2F%2Ffonts.googleapis.com%2Fcss%3Ffamily%3DArchitects%2BDaughter;fontSize=20;" vertex="1" parent="1">
          <mxGeometry x="60" y="410" width="160" height="80" as="geometry" />
        </mxCell>
        <mxCell id="Q3d7SYvH9cN6FebdILkr-13" value="" style="edgeStyle=none;curved=1;rounded=0;sketch=1;hachureGap=4;orthogonalLoop=1;jettySize=auto;html=1;fontFamily=Architects Daughter;fontSource=https%3A%2F%2Ffonts.googleapis.com%2Fcss%3Ffamily%3DArchitects%2BDaughter;fontSize=16;endArrow=open;startSize=14;endSize=14;sourcePerimeterSpacing=8;targetPerimeterSpacing=8;" edge="1" parent="1" source="Q3d7SYvH9cN6FebdILkr-10" target="Q3d7SYvH9cN6FebdILkr-12">
          <mxGeometry relative="1" as="geometry" />
        </mxCell>
        <mxCell id="Q3d7SYvH9cN6FebdILkr-15" value="" style="edgeStyle=none;curved=1;rounded=0;sketch=1;hachureGap=4;orthogonalLoop=1;jettySize=auto;html=1;fontFamily=Architects Daughter;fontSource=https%3A%2F%2Ffonts.googleapis.com%2Fcss%3Ffamily%3DArchitects%2BDaughter;fontSize=20;fontColor=default;endArrow=open;startSize=14;endSize=14;sourcePerimeterSpacing=8;targetPerimeterSpacing=8;" edge="1" parent="1" source="Q3d7SYvH9cN6FebdILkr-10" target="Q3d7SYvH9cN6FebdILkr-14">
          <mxGeometry relative="1" as="geometry" />
        </mxCell>
        <mxCell id="Q3d7SYvH9cN6FebdILkr-10" value="磁盘性能参数" style="rounded=0;whiteSpace=wrap;html=1;sketch=1;hachureGap=4;fontFamily=Architects Daughter;fontSource=https%3A%2F%2Ffonts.googleapis.com%2Fcss%3Ffamily%3DArchitects%2BDaughter;fontSize=20;" vertex="1" parent="1">
          <mxGeometry x="290" y="520" width="160" height="80" as="geometry" />
        </mxCell>
        <mxCell id="Q3d7SYvH9cN6FebdILkr-12" value="IOPS inout/output Per &amp;nbsp; &amp;nbsp;second" style="rounded=0;whiteSpace=wrap;html=1;sketch=1;hachureGap=4;fontFamily=Architects Daughter;fontSource=https%3A%2F%2Ffonts.googleapis.com%2Fcss%3Ffamily%3DArchitects%2BDaughter;fontSize=20;" vertex="1" parent="1">
          <mxGeometry x="340" y="710" width="160" height="80" as="geometry" />
        </mxCell>
        <mxCell id="Q3d7SYvH9cN6FebdILkr-14" value="" style="rounded=0;whiteSpace=wrap;html=1;sketch=1;hachureGap=4;fontFamily=Architects Daughter;fontSource=https%3A%2F%2Ffonts.googleapis.com%2Fcss%3Ffamily%3DArchitects%2BDaughter;fontSize=20;fontColor=default;strokeColor=default;fillColor=default;" vertex="1" parent="1">
          <mxGeometry x="570" y="520" width="160" height="80" as="geometry" />
        </mxCell>
      </root>
    </mxGraphModel>
  </diagram>
</mxfile>
